<svg xmlns="http://www.w3.org/2000/svg" width="240" height="215" xml:space="preserve"><g><g><g><path style="stroke:#000;stroke-width:4.41;stroke-dasharray:none;stroke-linecap:butt;stroke-dashoffset:0;stroke-linejoin:miter;stroke-miterlimit:4;fill:#bf5b4a;fill-rule:evenodd;opacity:1" transform="translate(-168.77 -366.62)" d="M265.404 410.21s-41.982 10.915-53.736 43.66c-11.755 32.745-6.717 83.123 36.103 106.632 42.821 23.51 85.75 16.103 112.51-3.359 27.707-20.15 28.547-43.66 31.066-74.726 2.519-31.066-38.593-79.576-69.689-74.726-30.813 4.806-56.254 1.68-56.254 2.519z" stroke-linecap="round"/><path style="stroke:#000;stroke-width:4.43;stroke-dasharray:none;stroke-linecap:butt;stroke-dashoffset:0;stroke-linejoin:miter;stroke-miterlimit:4;fill:#46a340;fill-rule:evenodd;opacity:1" transform="translate(-168.77 -366.63)" d="M285.333 370.342s-3.725 26.415-3.828 29.488c-.027.85-16.05-4.404-20.232-7.212-4.182-2.808-13.107-7.424-19.413-9.496-6.658-2.187-28.879.836-27.61 4.217 1.27 3.38 2.685-1.738 12.224.623 9.54 2.36 31.847 20.045 35.103 21.22 3.256 1.175-8.015 3.067-12.093 3.868-4.078.802-12.378-.696-18.786.564-6.409 1.26-33.472 4.8-40.796 1.4-7.324-3.401-10.998-7.416-11.57-10.329-.573-2.913-2.159-8.464-5.071-7.891-2.913.572-1.169 10.118.804 14.007 1.94 3.825 17.639 11.6 23.156 11.372 5.517-.229 29.225.673 33.054.563 3.829-.111 39.778-3.327 42.212-5.089 2.435-1.762 2.314-2.38 4.528.18 2.214 2.56 5.54 5.33 9.074 6.987 3.535 1.659 5.71 2.7 9.864 4.885 9.69 5.097 12.966-.401 13.92-2.094.888-1.573 2.083-7.233-1.705-6.916-3.788.317-7.33.799-8.353-1.14-1.023-1.938-1.34-5.726.97-7.036 2.31-1.31 11.332-3.296 17.132-2.084 5.8 1.214 15.514 1.657 19.63 1.918 4.116.26 14.819.296 20.336.068 5.517-.229 12.736-2.162 15.896-1.841 5.02.51 17.382-2.989 20.93-5.612 2.418-1.786 5.414-6.198 6.245-8.5.831-2.303 2.81-3.12.673-4.197s.21-1.11-5.693 3.686c-5.903 4.797-9.364 5.691-12.372 6.71-3.009 1.02-12.314 1.565-16.264 1.058-3.95-.507-22.22-3.12-25.6-1.814-3.38 1.306-21.237-1.388-23.87-1.726-2.634-.338.26-4.115 2.246-7.073 1.986-2.957 5.862-5.003 8.624-6.187 2.762-1.185 6.882-1.995 9.475-1.862 2.593.132 5.554 1.047 7.69 2.124 2.138 1.078 4.764 3.557 7.347 6.9 2.582 3.343 3.656 4.322 4.14 2.604 1.109-3.933.429-2.204.107-5.568-.322-3.365-5.05-7.865-9.862-9.487-4.811-1.621-7.632-2.701-12.204-2.017-4.572.685-16.756 2.989-20.757 5.487-4 2.499-9.273 6.59-16.127 9.374-1.745.709-3.533-7.008-1.734-14.975 1.15-5.096 1.881-7.211 1.881-7.211-2.947-3.636-8.071-2.916-13.322-1.945z" stroke-linecap="round"/></g><path style="stroke:#000;stroke-width:2;stroke-dasharray:none;stroke-linecap:butt;stroke-dashoffset:0;stroke-linejoin:miter;stroke-miterlimit:4;fill:#000;fill-rule:nonzero;opacity:1" d="M0 0" transform="translate(247 169.84)"/><path style="stroke:#000;stroke-width:4;stroke-dasharray:none;stroke-linecap:butt;stroke-dashoffset:0;stroke-linejoin:miter;stroke-miterlimit:4;fill:#000;fill-rule:nonzero;opacity:1" d="m15.5-14-31 28" transform="matrix(.62 .1 -.1 .62 202.69 96.81)"/><path style="stroke:#000;stroke-width:4;stroke-dasharray:none;stroke-linecap:butt;stroke-dashoffset:0;stroke-linejoin:miter;stroke-miterlimit:4;fill:#000;fill-rule:nonzero;opacity:1" d="m15.5-14-31 28" transform="matrix(.21 .59 -.59 .21 67.75 71.71)"/><path style="stroke:#000;stroke-width:4;stroke-dasharray:none;stroke-linecap:butt;stroke-dashoffset:0;stroke-linejoin:miter;stroke-miterlimit:4;fill:#000;fill-rule:nonzero;opacity:1" d="m15.5-14-31 28" transform="matrix(.63 0 0 .63 84.55 176.92)"/><path style="stroke:#000;stroke-width:4;stroke-dasharray:none;stroke-linecap:butt;stroke-dashoffset:0;stroke-linejoin:miter;stroke-miterlimit:4;fill:#000;fill-rule:nonzero;opacity:1" d="m15.5-14-31 28" transform="rotate(48.2 -95.34 115.45) scale(.63)"/><path style="stroke:#000;stroke-width:4;stroke-dasharray:none;stroke-linecap:butt;stroke-dashoffset:0;stroke-linejoin:miter;stroke-miterlimit:4;fill:#000;fill-rule:nonzero;opacity:1" d="m15.5-14-31 28" transform="matrix(.63 0 0 .63 182.56 67.92)"/><path style="stroke:#000;stroke-width:4;stroke-dasharray:none;stroke-linecap:butt;stroke-dashoffset:0;stroke-linejoin:miter;stroke-miterlimit:4;fill:#000;fill-rule:nonzero;opacity:1" d="m15.5-14-31 28" transform="matrix(.6 .2 -.2 .6 57.83 143.72)"/><path style="stroke:#000;stroke-width:4;stroke-dasharray:none;stroke-linecap:butt;stroke-dashoffset:0;stroke-linejoin:miter;stroke-miterlimit:4;fill:#000;fill-rule:nonzero;opacity:1" d="m15.5-14-31 28" transform="matrix(.38 .5 -.5 .38 207.43 142.62)"/><path style="stroke:#000;stroke-width:4;stroke-dasharray:none;stroke-linecap:butt;stroke-dashoffset:0;stroke-linejoin:miter;stroke-miterlimit:4;fill:#000;fill-rule:nonzero;opacity:1" d="m15.5-14-31 28" transform="rotate(94.6 7.193 174.336) scale(.63)"/><path style="stroke:#000;stroke-width:4;stroke-dasharray:none;stroke-linecap:butt;stroke-dashoffset:0;stroke-linejoin:miter;stroke-miterlimit:4;fill:#000;fill-rule:nonzero;opacity:1" d="m15.5-14-31 28" transform="rotate(130.6 22.93 126.625) scale(.63)"/></g><g><path style="stroke:#000;stroke-width:5;stroke-dasharray:none;stroke-linecap:butt;stroke-dashoffset:0;stroke-linejoin:miter;stroke-miterlimit:4;fill:none;fill-rule:nonzero;opacity:1" transform="matrix(-.04 -.8 .51 -.02 119.45 168.19)" d="M20.014 0h84.374C115.44 0 124.4 9.282 124.4 20.733c0 11.45-8.96 20.732-20.013 20.732H20.014C8.96 41.465 0 32.183 0 20.733S8.96 0 20.014 0z" stroke-linecap="round"/><path style="stroke:#000;stroke-width:4;stroke-dasharray:none;stroke-linecap:butt;stroke-dashoffset:0;stroke-linejoin:miter;stroke-miterlimit:4;fill:#000;fill-rule:nonzero;opacity:1" d="m18-14.5-36 29" transform="matrix(.25 -.34 .34 .25 125.664 87.628)"/><path style="stroke:#000;stroke-width:2;stroke-dasharray:none;stroke-linecap:butt;stroke-dashoffset:0;stroke-linejoin:miter;stroke-miterlimit:4;fill:#000;fill-rule:nonzero;opacity:1" d="M0 0" transform="matrix(.38 -.52 .52 .38 126.44 100.2)"/></g></g></svg>